<svg xmlns="http://www.w3.org/2000/svg" viewBox="0 0 1200 800" role="img" aria-labelledby="title desc">
  <title id="title">People learning a practical skill in a workshop</title>
  <desc id="desc">A workshop scene with an instructor helping two adults build a wooden object at a workbench.</desc>
  <defs>
    <linearGradient id="wall" x1="0" x2="1" y1="0" y2="1">
      <stop offset="0" stop-color="#e8eef4"/>
      <stop offset="1" stop-color="#cfd9e3"/>
    </linearGradient>
    <linearGradient id="floor" x1="0" x2="1">
      <stop offset="0" stop-color="#b98b62"/>
      <stop offset="1" stop-color="#8d684a"/>
    </linearGradient>
  </defs>
  <rect width="1200" height="800" fill="url(#wall)"/>
  <rect y="540" width="1200" height="260" fill="url(#floor)"/>
  <rect x="70" y="90" width="320" height="210" rx="12" fill="#f8fafc" stroke="#8aa0b5" stroke-width="8"/>
  <path d="M105 255h250M120 130h220M120 170h175M120 210h140" stroke="#5f778e" stroke-width="12" stroke-linecap="round"/>
  <rect x="840" y="80" width="250" height="360" rx="14" fill="#4d6479"/>
  <path d="M875 135h180M875 195h180M875 255h180M875 315h180M875 375h180" stroke="#c9d6df" stroke-width="14" stroke-linecap="round"/>
  <rect x="210" y="475" width="720" height="65" rx="12" fill="#6f4d34"/>
  <rect x="250" y="540" width="42" height="180" fill="#513724"/>
  <rect x="830" y="540" width="42" height="180" fill="#513724"/>
  <rect x="410" y="420" width="320" height="105" rx="10" fill="#d79c55" stroke="#7a5231" stroke-width="7"/>
  <path d="M440 465h260M465 500h210" stroke="#9b673a" stroke-width="10" stroke-linecap="round"/>
  <circle cx="340" cy="325" r="54" fill="#8a5b43"/>
  <path d="M285 420c18-67 91-78 119-20l32 105H255z" fill="#236b8e"/>
  <path d="M402 452l115 40" stroke="#8a5b43" stroke-width="24" stroke-linecap="round"/>
  <circle cx="602" cy="315" r="50" fill="#c77f58"/>
  <path d="M550 405c26-70 94-72 121-6l38 112H520z" fill="#9f3d3d"/>
  <path d="M550 450l-100 50M675 448l84 38" stroke="#c77f58" stroke-width="24" stroke-linecap="round"/>
  <circle cx="795" cy="300" r="56" fill="#7a503c"/>
  <path d="M735 395c20-76 101-81 132-10l47 125H700z" fill="#2f6f4e"/>
  <path d="M748 444l-83 48M856 435l-120 64" stroke="#7a503c" stroke-width="24" stroke-linecap="round"/>
  <path d="M732 515l90-58 22 34-90 58z" fill="#38434f"/>
  <path d="M515 505l-54-36" stroke="#333" stroke-width="8" stroke-linecap="round"/>
  <circle cx="456" cy="466" r="18" fill="#333"/>
  <path d="M180 720h810" stroke="#6f4d34" stroke-width="18" stroke-linecap="round" opacity=".45"/>
</svg>
